#N canvas 800 0 784 801 10;
#X floatatom 324 501 5 0 3500 0 - - -;
#X floatatom 254 502 5 -90 90 0 - - -;
#X floatatom 178 502 5 0 0 0 - - -;
#X text 257 485 Elevation;
#X text 329 485 Distance;
#X text 211 501 deg;
#X text 286 501 deg;
#X text 357 500 cm;
#X obj 144 569 dac~ 1 2;
#X obj 144 383 /~ 1;
#X obj 171 2 bng 15 250 50 0 empty empty empty 17 7 0 10 -262144 -1
-1;
#X obj 143 -17 bng 15 250 50 0 empty empty empty 17 7 0 10 -262144
-1 -1;
#X msg 171 78 1;
#X msg 143 78 0;
#X text 189 0 Start;
#X text 163 -19 Stop;
#X obj 144 233 *~ 0.5;
#X floatatom 283 208 5 0 0 0 - - -;
#X obj 20 450 vu 15 120 empty empty -1 -8 0 10 -66577 -1 1 0;
#X obj 20 420 - 100;
#X obj 20 400 env~ 8192;
#X text 61 474 fs;
#X text 58 420 0dBfs = 100dB;
#X obj 177 172 r volume;
#X obj 143 -41 select 0 1;
#X obj 177 211 / 127;
#X text 182 486 Azimuth;
#X obj 164 293 r dist_volume;
#X obj 164 319 expr $f1 \; if($f1 <=0.15 \, 0.15 \, $f1);
#X obj 144 544 earplug~ 0 0;
#X obj 324 523 s dist_volume;
#X obj 143 112 readsf~;
#X text 232 -11 audio on/off;
#X obj 180 192 hsl 128 15 0 127 0 0 empty empty empty -2 -8 0 10 -262144
-1 -1 0 1;
#X text 233 171 set volume from OSC;
#X text 252 288 set volume from distance;
#X text 203 568 audio output;
#N canvas 0 0 1588 817 OSC_receiver 1;
#X obj 195 -112 dumpOSC 12002;
#X msg 147 -10 1 \$1 \$2 \$3;
#X obj 147 14 spray 4;
#X obj -83 -16 s volume;
#X obj 448 -96 print OSC;
#X obj 8 -37 route TriggerOnOff;
#X obj -83 -52 route Volume;
#X obj 147 -36 route Position;
#X obj 160 88 s dist;
#X obj 173 65 s azim;
#X obj 186 43 s elev;
#X obj 448 -121 gate;
#X obj 448 -141 tgl 15 0 empty empty empty 17 7 0 10 -262144 -1 -1
1 1;
#X obj 448 -183 loadbang;
#X msg 448 -161 1;
#X text -88 -113 This patch receives OSC messages from Blender (12002@localhost)
;
#X obj 8 -11 tgl 15 0 empty empty empty 17 7 0 10 -262144 -1 -1 0 1
;
#X obj 8 12 s trigger;
#X msg 387 0 1 \$1 \$2 \$3;
#X obj 387 24 spray 4;
#X obj 248 -1 tgl 15 0 empty empty empty 17 7 0 10 -262144 -1 -1 0
1;
#X obj 248 22 s triggerL;
#X obj 400 98 s distL;
#X obj 413 75 s azimL;
#X obj 426 53 s elevL;
#X obj 248 -27 route TriggerOnOffL;
#X obj 387 -26 route PositionL;
#X msg 653 2 1 \$1 \$2 \$3;
#X obj 653 26 spray 4;
#X obj 514 1 tgl 15 0 empty empty empty 17 7 0 10 -262144 -1 -1 0 1
;
#X obj 512 -28 route TriggerOnOffD;
#X obj 653 -24 route PositionD;
#X obj 514 24 s triggerD;
#X obj 692 55 s elevD;
#X obj 679 77 s azimD;
#X obj 666 100 s distD;
#X connect 0 0 5 0;
#X connect 0 0 6 0;
#X connect 0 0 7 0;
#X connect 0 0 11 1;
#X connect 0 0 25 0;
#X connect 0 0 26 0;
#X connect 0 0 30 0;
#X connect 0 0 31 0;
#X connect 1 0 2 0;
#X connect 2 1 8 0;
#X connect 2 2 9 0;
#X connect 2 3 10 0;
#X connect 5 0 16 0;
#X connect 6 0 3 0;
#X connect 7 0 1 0;
#X connect 11 0 4 0;
#X connect 12 0 11 0;
#X connect 13 0 14 0;
#X connect 14 0 12 0;
#X connect 16 0 17 0;
#X connect 18 0 19 0;
#X connect 19 1 22 0;
#X connect 19 2 23 0;
#X connect 19 3 24 0;
#X connect 20 0 21 0;
#X connect 25 0 20 0;
#X connect 26 0 18 0;
#X connect 27 0 28 0;
#X connect 28 1 35 0;
#X connect 28 2 34 0;
#X connect 28 3 33 0;
#X connect 29 0 32 0;
#X connect 30 0 29 0;
#X connect 31 0 27 0;
#X restore 8 -58 pd OSC_receiver;
#X text 201 77 Load and read audio file;
#X obj 182 134 bng 15 250 50 0 empty empty empty 17 7 0 10 -262144
-1 -1;
#X text 200 132 bang when finished reading;
#X floatatom 311 357 5 0 0 0 - - -;
#X obj 143 -62 r trigger;
#X text 320 318 limit minimum distance;
#X obj 178 465 r azim;
#X obj 256 467 r elev;
#X obj 324 443 r dist;
#X msg 204 95 open timebomb.wav \, 1;
#X floatatom 727 498 5 0 3500 0 - - -;
#X floatatom 657 499 5 -90 90 0 - - -;
#X floatatom 581 499 5 0 0 0 - - -;
#X text 660 482 Elevation;
#X text 732 482 Distance;
#X text 614 498 deg;
#X text 689 498 deg;
#X text 760 497 cm;
#X obj 547 566 dac~ 1 2;
#X obj 547 380 /~ 1;
#X obj 574 -1 bng 15 250 50 0 empty empty empty 17 7 0 10 -262144 -1
-1;
#X obj 546 -20 bng 15 250 50 0 empty empty empty 17 7 0 10 -262144
-1 -1;
#X msg 574 75 1;
#X msg 546 75 0;
#X text 592 -3 Start;
#X text 566 -22 Stop;
#X obj 547 230 *~ 0.5;
#X obj 424 444 vu 15 120 empty empty -1 -8 0 10 -66577 -1 1 0;
#X obj 423 417 - 100;
#X obj 423 397 env~ 8192;
#X text 464 471 fs;
#X text 461 417 0dBfs = 100dB;
#X obj 546 -44 select 0 1;
#X obj 580 208 / 127;
#X text 585 483 Azimuth;
#X obj 567 316 expr $f1 \; if($f1 <=0.15 \, 0.15 \, $f1);
#X obj 568 360 / 0.15;
#X obj 547 541 earplug~ 0 0;
#X obj 546 109 readsf~;
#X text 635 -14 audio on/off;
#X msg 637 -48 \; pd dsp \$1;
#X obj 592 197 hsl 128 15 0 127 0 0 empty empty empty -2 -8 0 10 -262144
-1 -1 0 1;
#X text 636 168 set volume from OSC;
#X text 655 285 set volume from distance;
#X text 606 565 audio output;
#X text 604 74 Load and read audio file;
#X obj 585 131 bng 15 250 50 0 empty empty empty 17 7 0 10 -262144
-1 -1;
#X text 603 129 bang when finished reading;
#X floatatom 714 354 5 0 0 0 - - -;
#X obj 727 463 * 1;
#X text 723 315 limit minimum distance;
#X obj 546 -65 r triggerL;
#X msg 607 92 open scary_theme.wav \, 1;
#X obj 581 462 r azimL;
#X obj 659 464 r elevL;
#X obj 727 440 r distL;
#X obj 324 466 * 1;
#X obj 165 363 / 0.15;
#X obj 567 290 r dist_volumeL;
#X obj 727 520 s dist_volumeL;
#X obj 580 169 r volume;
#X floatatom 688 219 5 0 0 0 - - -;
#X floatatom 1140 510 5 0 3500 0 - - -;
#X floatatom 1070 511 5 -90 90 0 - - -;
#X floatatom 994 511 5 0 0 0 - - -;
#X text 1073 494 Elevation;
#X text 1145 494 Distance;
#X text 1027 510 deg;
#X text 1102 510 deg;
#X text 1173 509 cm;
#X obj 960 578 dac~ 1 2;
#X obj 960 392 /~ 1;
#X obj 987 11 bng 15 250 50 0 empty empty empty 17 7 0 10 -262144 -1
-1;
#X obj 959 -8 bng 15 250 50 0 empty empty empty 17 7 0 10 -262144 -1
-1;
#X msg 987 87 1;
#X msg 959 87 0;
#X text 1005 9 Start;
#X text 979 -10 Stop;
#X obj 960 242 *~ 0.5;
#X obj 837 456 vu 15 120 empty empty -1 -8 0 10 -66577 -1 1 0;
#X obj 836 429 - 100;
#X obj 836 409 env~ 8192;
#X text 877 483 fs;
#X text 874 429 0dBfs = 100dB;
#X obj 959 -32 select 0 1;
#X obj 993 220 / 127;
#X text 998 495 Azimuth;
#X obj 980 328 expr $f1 \; if($f1 <=0.15 \, 0.15 \, $f1);
#X obj 981 372 / 0.15;
#X obj 960 553 earplug~ 0 0;
#X obj 959 121 readsf~;
#X text 1048 -2 audio on/off;
#X msg 1050 -36 \; pd dsp \$1;
#X obj 1005 209 hsl 128 15 0 127 0 0 empty empty empty -2 -8 0 10 -262144
-1 -1 0 1;
#X text 1049 180 set volume from OSC;
#X text 1068 297 set volume from distance;
#X text 1019 577 audio output;
#X text 1017 86 Load and read audio file;
#X obj 998 143 bng 15 250 50 0 empty empty empty 17 7 0 10 -262144
-1 -1;
#X text 1016 141 bang when finished reading;
#X floatatom 1127 366 5 0 0 0 - - -;
#X obj 1140 475 * 1;
#X text 1136 327 limit minimum distance;
#X obj 993 181 r volume;
#X floatatom 1101 231 5 0 0 0 - - -;
#X obj 959 -53 r triggerD;
#X msg 1020 104 open flip.wav \, 1;
#X obj 1140 452 r distD;
#X obj 1140 532 s dist_volumeD;
#X obj 980 302 r dist_volumeD;
#X obj 1072 476 r elevD;
#X obj 994 474 r azimD;
#X connect 0 0 30 0;
#X connect 1 0 29 2;
#X connect 2 0 29 1;
#X connect 9 0 20 0;
#X connect 9 0 29 0;
#X connect 10 0 12 0;
#X connect 11 0 13 0;
#X connect 12 0 47 0;
#X connect 13 0 31 0;
#X connect 16 0 9 0;
#X connect 19 0 18 0;
#X connect 20 0 19 0;
#X connect 23 0 33 0;
#X connect 24 0 11 0;
#X connect 24 1 10 0;
#X connect 25 0 16 1;
#X connect 27 0 28 0;
#X connect 28 1 41 0;
#X connect 28 1 95 0;
#X connect 29 0 8 0;
#X connect 29 1 8 1;
#X connect 31 0 16 0;
#X connect 31 1 47 0;
#X connect 31 1 39 0;
#X connect 33 0 17 0;
#X connect 33 0 25 0;
#X connect 42 0 24 0;
#X connect 44 0 2 0;
#X connect 45 0 1 0;
#X connect 46 0 94 0;
#X connect 47 0 31 0;
#X connect 48 0 97 0;
#X connect 49 0 75 2;
#X connect 50 0 75 1;
#X connect 57 0 67 0;
#X connect 57 0 75 0;
#X connect 58 0 60 0;
#X connect 59 0 61 0;
#X connect 60 0 90 0;
#X connect 61 0 76 0;
#X connect 64 0 57 0;
#X connect 66 0 65 0;
#X connect 67 0 66 0;
#X connect 70 0 59 0;
#X connect 70 1 58 0;
#X connect 71 0 64 1;
#X connect 73 1 74 0;
#X connect 73 1 86 0;
#X connect 74 0 57 1;
#X connect 75 0 56 0;
#X connect 75 1 56 1;
#X connect 76 0 64 0;
#X connect 76 1 90 0;
#X connect 76 1 84 0;
#X connect 79 0 71 0;
#X connect 79 0 99 0;
#X connect 87 0 48 0;
#X connect 89 0 70 0;
#X connect 89 0 78 0;
#X connect 90 0 76 0;
#X connect 91 0 50 0;
#X connect 92 0 49 0;
#X connect 93 0 87 0;
#X connect 94 0 0 0;
#X connect 95 0 9 1;
#X connect 96 0 73 0;
#X connect 98 0 79 0;
#X connect 100 0 146 0;
#X connect 101 0 127 2;
#X connect 102 0 127 1;
#X connect 109 0 119 0;
#X connect 109 0 127 0;
#X connect 110 0 112 0;
#X connect 111 0 113 0;
#X connect 112 0 144 0;
#X connect 113 0 128 0;
#X connect 116 0 109 0;
#X connect 118 0 117 0;
#X connect 119 0 118 0;
#X connect 122 0 111 0;
#X connect 122 1 110 0;
#X connect 123 0 116 1;
#X connect 125 1 126 0;
#X connect 125 1 138 0;
#X connect 126 0 109 1;
#X connect 127 0 108 0;
#X connect 127 1 108 1;
#X connect 128 0 116 0;
#X connect 128 1 144 0;
#X connect 128 1 136 0;
#X connect 131 0 123 0;
#X connect 131 0 142 0;
#X connect 139 0 100 0;
#X connect 141 0 131 0;
#X connect 143 0 122 0;
#X connect 143 0 130 0;
#X connect 144 0 128 0;
#X connect 145 0 139 0;
#X connect 147 0 125 0;
#X connect 148 0 101 0;
#X connect 149 0 102 0;
